<svg width="1200" height="300" viewBox="0 0 1200 300" fill="none" xmlns="http://www.w3.org/2000/svg" role="img" aria-labelledby="title desc">
  <title id="title">QuiPraia 3C — versão clara</title>
  <desc id="desc">Assinatura oficial QuiPraia em fundo Foam.</desc>
  <rect width="1200" height="300" rx="24" fill="#F4F6F7"/>
  <g transform="translate(38 48) scale(.9)">
    <path d="M42 34H152C184 34 205 56 205 88V131H171V91C171 76 162 68 147 68H88C69 68 58 79 58 98V111H24V91C24 58 49 34 82 34H42Z" fill="#0B1D2D"/>
    <path d="M24 119H91C111 119 124 128 137 146L151 166H88C50 166 24 148 24 119Z" fill="#0B1D2D"/>
    <path d="M14 78H88C98 78 104 74 111 67H50C32 67 21 71 14 78ZM8 94H91C102 94 110 89 118 82H42C24 82 14 87 8 94ZM12 110H94C105 110 115 105 123 98H44C27 98 18 103 12 110Z" fill="#F4F6F7"/>
    <path d="M119 118C140 122 158 132 175 146L223 174H157C143 150 132 135 111 126L119 118Z" fill="#FF6B57"/>
  </g>
  <g transform="translate(300 65) skewX(-12)" fill="#0B1D2D">
    <path fill-rule="evenodd" d="M18 0H66Q84 0 84 18V82Q84 100 66 100H18Q0 100 0 82V18Q0 0 18 0ZM25 21Q20 21 20 26V74Q20 79 25 79H59Q64 79 64 74V26Q64 21 59 21H25Z"/><path d="M49 68L88 104H61L36 78L49 68Z"/>
    <path d="M100 0H120V72Q120 80 129 80H158Q167 80 167 72V0H187V76Q187 100 163 100H124Q100 100 100 76V0Z"/><path d="M203 0H223V100H203V0Z"/>
    <path fill-rule="evenodd" d="M240 0H300Q324 0 324 24V42Q324 66 300 66H260V100H240V0ZM260 20V46H295Q304 46 304 37V29Q304 20 295 20H260Z"/>
    <path fill-rule="evenodd" d="M340 0H400Q424 0 424 24V40Q424 58 408 64L433 100H407L385 66H360V100H340V0ZM360 20V46H395Q404 46 404 37V29Q404 20 395 20H360Z"/>
    <path fill-rule="evenodd" d="M477 0H500L535 100H513L505 78H468L460 100H438L477 0ZM475 59H499L488 24L475 59Z"/><path d="M550 0H570V100H550V0Z"/>
    <path fill-rule="evenodd" d="M624 0H647L682 100H660L652 78H615L607 100H585L624 0ZM622 59H646L635 24L622 59Z"/>
  </g>
  <path d="M326 154L356 154L344 176L326 154Z" fill="#FF6B57"/>
  <text x="306" y="211" fill="#9FD3C6" font-family="Sora, Inter, Arial, sans-serif" font-size="23" font-weight="600" letter-spacing="8">QUAL PRAIA HOJE?</text>
  <text x="308" y="251" fill="#FF6B57" font-family="Inter, Arial, sans-serif" font-size="16" font-weight="700" letter-spacing="5">SWELL · MARÉ · VENTO</text>
</svg>
